<?xml version="1.0" encoding="UTF-8" standalone="no"?>
<!-- Created with Inkscape (http://www.inkscape.org/) -->

<svg
   xmlns:dc="http://purl.org/dc/elements/1.1/"
   xmlns:cc="http://creativecommons.org/ns#"
   xmlns:rdf="http://www.w3.org/1999/02/22-rdf-syntax-ns#"
   xmlns:svg="http://www.w3.org/2000/svg"
   xmlns="http://www.w3.org/2000/svg"
   xmlns:sodipodi="http://sodipodi.sourceforge.net/DTD/sodipodi-0.dtd"
   xmlns:inkscape="http://www.inkscape.org/namespaces/inkscape"
   width="85.295563mm"
   height="56.43325mm"
   viewBox="0 0 302.22837 199.96034"
   id="svg4539"
   version="1.1"
   inkscape:version="0.91 r13725"
   sodipodi:docname="logo2.svg">
  <defs
     id="defs4541" />
  <sodipodi:namedview
     id="base"
     pagecolor="#ffffff"
     bordercolor="#666666"
     borderopacity="1.0"
     inkscape:pageopacity="0.0"
     inkscape:pageshadow="2"
     inkscape:zoom="1.4"
     inkscape:cx="222.45207"
     inkscape:cy="92.007369"
     inkscape:document-units="px"
     inkscape:current-layer="layer1"
     showgrid="false"
     inkscape:window-width="1366"
     inkscape:window-height="745"
     inkscape:window-x="-8"
     inkscape:window-y="-8"
     inkscape:window-maximized="1" />
  <metadata
     id="metadata4544">
    <rdf:RDF>
      <cc:Work
         rdf:about="">
        <dc:format>image/svg+xml</dc:format>
        <dc:type
           rdf:resource="http://purl.org/dc/dcmitype/StillImage" />
        <dc:title></dc:title>
      </cc:Work>
    </rdf:RDF>
  </metadata>
  <g
     inkscape:label="Layer 1"
     inkscape:groupmode="layer"
     id="layer1"
     transform="translate(0,-852.40187)">
    <path
       inkscape:connector-curvature="0"
       id="path3350"
       style="fill:#ffffff;fill-opacity:1;fill-rule:nonzero;stroke:none"
       d="m 296.94668,916.31593 c 0,0 -3.10079,0.80294 -3.10079,0.80294 0,0 1.70845,0.12058 1.70845,0.12058 0,0 1.39234,-0.9236 1.39234,-0.9236 z" />
    <path
       inkscape:connector-curvature="0"
       id="path3352"
       style="fill:#ffffff;fill-opacity:1;fill-rule:nonzero;stroke:none"
       d="m 290.97132,917.84289 c 0,0 -0.54622,0.13729 -0.54622,0.13729 0,0 -0.42696,0.27472 -0.42696,0.27472 0,0 0.97318,-0.41189 0.97318,-0.41189 z" />
    <path
       inkscape:connector-curvature="0"
       id="path3354"
       style="fill:#ffffff;fill-opacity:1;fill-rule:nonzero;stroke:none"
       d="m 285.73121,919.76923 c 0,0 2.71457,-0.8446 2.71457,-0.8446 0,0 -2.71457,0.8446 -2.71457,0.8446 z" />
    <path
       inkscape:connector-curvature="0"
       id="path3356"
       style="fill:#ffffff;fill-opacity:1;fill-rule:nonzero;stroke:none"
       d="m 290.1048,918.93705 c -0.3982,-0.1371 -0.61602,-0.33699 -0.12289,-0.66982 0,0 0.0299,-0.0118 0.0299,-0.0118 0,0 -1.55235,0.66982 -1.55235,0.66982 0,0 1.65931,0.0118 1.65931,0.0118 z" />
    <path
       inkscape:connector-curvature="0"
       id="path3358"
       style="fill:#ffffff;fill-opacity:1;fill-rule:nonzero;stroke:none"
       d="m 290.1048,918.93705 c 0,0 1.16224,0.28717 1.16224,0.28717 0,0 -1.16224,-0.28717 -1.16224,-0.28717 z" />
    <path
       inkscape:connector-curvature="0"
       id="path3360"
       style="fill:#ffffff;fill-opacity:1;fill-rule:nonzero;stroke:none"
       d="m 290.30196,924.88679 c -0.48448,0.32864 -0.79669,-1.28156 -1.77407,-0.62417 -2.40657,1.16082 -4.38167,2.48394 -6.73911,3.15796 -0.98545,0.68235 -3.16192,-0.63659 -4.14347,-0.0118 -2.42306,1.09422 -8.42268,4.88463 -4.59531,3.80696 5.73689,-1.6642 9.37967,-3.10791 14.4388,-4.90532 0,0 11.9094,-5.52949 11.9094,-5.52949 0,0 3.47023,-0.9153 3.47023,-0.9153 0,0 -4.82963,0.72392 -4.82963,0.72392 -2.31186,0.18726 -4.38587,2.95821 -7.73684,4.29794 z" />
    <path
       inkscape:connector-curvature="0"
       id="path3366"
       style="fill:#ffffff;fill-opacity:1;fill-rule:nonzero;stroke:none"
       d="m 274.70901,924.33335 c 0,0 -20.62361,4.9845 -20.62361,4.9845 0,0 -1.44538,0.82789 -1.44538,0.82789 0,0 -1.70036,-0.22463 -1.70036,-0.22463 0,0 -2.91982,0.55752 -2.91982,0.55752 0,0 -1.00193,0.35361 -1.00193,0.35361 0,0 -0.0299,0.0118 -0.0299,0.0118 -0.50516,0.30376 -0.29665,0.51593 0.0897,0.67407 0,0 1.14996,0.35362 1.14996,0.35362 0,0 -1.14996,-0.35362 -1.14996,-0.35362 0,0 -1.66291,-0.10404 -1.66291,-0.10404 0,0 -2.75982,0.67398 -2.75982,0.67398 0,0 2.75982,-0.67398 2.75982,-0.67398 0,0 1.59309,-0.58252 1.59309,-0.58252 0,0 0.44795,-0.2498 0.44795,-0.2498 0,0 -6.69388,1.23987 -6.69388,1.23987 0,0 -1.35549,0.43688 -1.35549,0.43688 -1.54813,0.56586 -3.10437,1.13166 -4.25433,0.57413 0,0 -1.1952,0.21218 -1.1952,0.21218 0,0 0.25469,0.0956 0.25469,0.0956 0,0 -0.46803,-0.0537 -0.46803,-0.0537 0,0 -5.0675,0.84043 -5.0675,0.84043 0,0 -3.1664,1.52692 -3.1664,1.52692 0,0 -0.86651,-0.3911 -1.29349,-0.59081 0,0 -1.72492,1.14417 -1.72492,1.14417 0,0 2.76402,0.87792 2.76402,0.87792 1.29737,0.59491 2.2214,-2.07613 3.86423,-0.80719 -1.64283,-1.26894 -2.56686,1.4021 -3.86423,0.80719 0,0 -2.76402,-0.87792 -2.76402,-0.87792 -1.54394,0.58249 -3.67126,0.67817 -5.46599,0.19974 1.93434,-1.06094 3.7947,-0.72393 5.46599,-0.19974 0,0 1.72492,-1.14417 1.72492,-1.14417 0.42698,0.19975 1.29349,0.59081 1.29349,0.59081 0,0 3.1664,-1.52692 3.1664,-1.52692 0,0 -10.10657,1.43125 -10.10657,1.43125 -22.02823,3.04138 -42.31507,6.46975 -65.30389,7.55568 -12.42683,0.89867 -24.41831,0.68641 -36.15093,0.0504 -23.280673,-1.14 -44.729742,0.36617 -67.870754,-5.49617 -8.841574,-2.09283 -25.502068,-3.00395 -33.998771,-4.15641 -11.638228,1.00684 -7.0513048,8.7539 -6.4967119,9.28229 6.3283239,7.03554 12.4595069,4.53088 26.8902119,9.59856 -9.876439,-2.96239 7.765918,-3.13297 17.017947,1.68499 13.498602,7.22695 33.670368,2.9624 50.791098,4.48519 4.30797,0.54081 8.87032,-0.0708 14.02024,-0.0916 26.78773,1.61433 51.51376,-3.79867 79.11858,-7.4267 7.35931,-0.94443 13.4863,-3.83601 19.46556,-5.72076 4.41884,-1.09843 9.35091,-1.18995 12.98532,-1.85988 5.71652,-1.0484 10.46763,-2.84999 15.00151,-4.53917 -5.1745,1.4063 -8.87035,2.81676 -14.69348,4.15224 -3.90139,0.7864 2.34065,-2.47549 4.79247,-3.57394 1.02649,-0.60327 3.11665,0.79468 4.13957,0.1912 2.39818,-0.53255 4.4431,-1.73494 6.91138,-2.7543 1.01423,-0.59912 1.23595,1.02762 1.74531,0.7323 3.42499,-1.14004 5.65475,-3.78202 7.98314,-3.83615 0,0 4.87486,-0.38274 4.87486,-0.38274 0,0 2.87457,-0.62825 2.87457,-0.62825 0,0 1.79444,-0.8779 1.79444,-0.8779 0,0 -1.26051,-1.46449 -1.26051,-1.46449 0,0 3.25241,-0.26621 3.25241,-0.26621 0,0 -3.25241,0.26621 -3.25241,0.26621 0,0 1.26051,1.46449 1.26051,1.46449 4.34093,-2.09692 9.39195,-4.26883 14.09424,-6.19515 0,0 -0.10776,-0.12058 -0.10776,-0.12058 -2.80893,0.88618 -5.64247,1.45207 -8.83315,1.23572 1.36748,0.0242 1.31805,0.50759 -0.12289,0.97357 0,0 -1.31804,-0.50756 -1.31804,-0.50756 2.43504,-1.09843 4.84999,-2.18851 7.55199,-1.65594 0,0 0.99384,-0.63244 1.49092,-0.94868 0.85814,0.0118 0.94861,0.52013 1.23176,0.90289 0,0 1.65091,-0.57412 1.65091,-0.57412 -1.39625,-0.44523 -5.40009,-0.53255 -5.40009,-0.52431 z" />
    <path
       inkscape:connector-curvature="0"
       id="path3368"
       style="fill:#ffffff;fill-opacity:1;fill-rule:nonzero;stroke:none"
       d="m 245.35052,931.38144 c 0,0 1.35938,-0.43268 1.35938,-0.43268 0,0 -5.61792,1.011 -5.61792,1.011 1.14155,0.5617 2.69811,-0.008 4.25854,-0.57832 z" />
    <path
       inkscape:connector-curvature="0"
       id="path3370"
       style="fill:#ffffff;fill-opacity:1;fill-rule:nonzero;stroke:none"
       d="m 242.56223,859.08679 c 0,0 -1.87265,0.71141 -1.87265,0.71141 0,0 1.15805,0.15383 1.15805,0.15383 0,0 0.7146,-0.8654 0.7146,-0.8654 z" />
    <path
       inkscape:connector-curvature="0"
       id="path3372"
       style="fill:#ffffff;fill-opacity:1;fill-rule:nonzero;stroke:none"
       d="m 238.94427,860.43064 c 0,0 -0.33676,0.12058 -0.33676,0.12058 0,0 -0.22171,0.24953 -0.22171,0.24953 0,0 0.55847,-0.37033 0.55847,-0.37033 z" />
    <path
       inkscape:connector-curvature="0"
       id="path3374"
       style="fill:#ffffff;fill-opacity:1;fill-rule:nonzero;stroke:none"
       d="m 235.88065,862.15312 c 0,0 1.62216,-0.74472 1.62216,-0.74472 0,0 -1.62216,0.74472 -1.62216,0.74472 z" />
    <path
       inkscape:connector-curvature="0"
       id="path3376"
       style="fill:#ffffff;fill-opacity:1;fill-rule:nonzero;stroke:none"
       d="m 238.59943,861.45414 c -0.29065,-0.14143 -0.4806,-0.33697 -0.22172,-0.64075 0,0 0,-0.0118 0,-0.0118 0,0 -0.883,0.60744 -0.883,0.60744 0,0 1.09662,0.046 1.09662,0.046 z" />
    <path
       inkscape:connector-curvature="0"
       id="path3378"
       style="fill:#ffffff;fill-opacity:1;fill-rule:nonzero;stroke:none"
       d="m 238.59943,861.45414 c 0,0 0.82935,0.29537 0.82935,0.29537 0,0 -0.82935,-0.29537 -0.82935,-0.29537 z" />
    <path
       inkscape:connector-curvature="0"
       id="path3380"
       style="fill:#ffffff;fill-opacity:1;fill-rule:nonzero;stroke:none"
       d="m 239.9708,867.13334 c -0.25468,0.30377 -0.79671,-1.23979 -1.31414,-0.63239 -1.35909,1.0651 -2.41046,2.29252 -3.84386,2.8958 -0.52973,0.61572 -2.20911,-0.63658 -2.74305,-0.0708 -1.38814,0.99854 -4.65282,4.53092 -2.32029,3.56975 3.49481,-1.48946 5.61373,-2.85834 8.63634,-4.45603 0,0 6.78403,-5.06754 6.78403,-5.06754 0,0 2.12732,-0.80301 2.12732,-0.80301 0,0 -3.07592,0.59908 -3.07592,0.59908 -1.48642,0.16642 -2.2915,2.74188 -4.25043,3.96504 z" />
    <path
       inkscape:connector-curvature="0"
       id="path3382"
       style="fill:#ffffff;fill-opacity:1;fill-rule:nonzero;stroke:none"
       d="m 256.28673,853.61978 c 0,0 -0.68194,0.96527 -0.68194,0.96527 -1.92179,-0.34955 -3.16612,0.79044 -4.43919,1.93883 0,0 1.00221,0.40772 1.00221,0.40772 0.80479,-0.50759 0.69814,-0.96526 -0.20073,-0.91123 2.13121,0.0303 3.84385,-0.61988 5.40008,-1.63927 0,0 -1.07983,-0.76132 -1.07983,-0.76132 z" />
    <path
       inkscape:connector-curvature="0"
       id="path3384"
       style="fill:#ffffff;fill-opacity:1;fill-rule:nonzero;stroke:none"
       d="m 258.26185,853.7487 c 0,0 -0.89529,0.6324 -0.89529,0.6324 0,0 0.10197,0.10799 0.10197,0.10799 0,0 0.84193,-0.72394 0.84193,-0.72394 0,0 -0.0509,-0.0177 -0.0509,-0.0177 z" />
    <path
       inkscape:connector-curvature="0"
       id="path3386"
       style="fill:#ffffff;fill-opacity:1;fill-rule:nonzero;stroke:none"
       d="m 229.53586,866.30954 c 0,0 -12.58685,4.38112 -12.58685,4.38112 0,0 -0.80479,0.76559 -0.80479,0.76559 0,0 -1.14187,-0.25375 -1.14187,-0.25375 0,0 -1.80671,0.47437 -1.80671,0.47437 0,0 -0.59564,0.32027 -0.59564,0.32027 0,0 0,0.0118 0,0.0118 -0.28164,0.27867 -0.11086,0.49096 0.16775,0.65738 0,0 0.80508,0.36616 0.80508,0.36616 0,0 -0.80508,-0.36616 -0.80508,-0.36616 0,0 -1.10053,-0.14143 -1.10053,-0.14143 0,0 -1.68357,0.59075 -1.68357,0.59075 0,0 1.68357,-0.59075 1.68357,-0.59075 0,0 0.94051,-0.52846 0.94051,-0.52846 0,0 0.25169,-0.23313 0.25169,-0.23313 0,0 -4.14348,1.04433 -4.14348,1.04433 0,0 -0.81318,0.39529 -0.81318,0.39529 -0.91593,0.51167 -1.83995,1.02762 -2.66542,0.45765 0,0 -0.73918,0.17447 -0.73918,0.17447 0,0 0.17688,0.1 0.17688,0.1 0,0 -0.30801,-0.0622 -0.30801,-0.0622 0,0 -3.13766,0.73638 -3.13766,0.73638 0,0 -1.82739,1.41049 -1.82739,1.41049 0,0 -0.91175,-0.61165 -0.91175,-0.61165 0,0 -0.9567,1.08183 -0.9567,1.08183 0,0 1.9053,0.92776 1.9053,0.92776 0.92405,0.61161 1.14188,-1.98046 2.3862,-0.69897 -1.24432,-1.28149 -1.46215,1.31058 -2.3862,0.69897 0,0 -1.9053,-0.92776 -1.9053,-0.92776 -0.91595,0.53257 -2.27503,0.56996 -3.48669,0.0537 1.1008,-0.99029 2.33675,-0.61161 3.48669,-0.0537 0,0 0.9567,-1.08183 0.9567,-1.08183 0,0 0.91175,0.61165 0.91175,0.61165 0,0 1.82739,-1.41049 1.82739,-1.41049 0,0 -6.30375,1.14421 -6.30375,1.14421 -13.69962,2.4173 -26.30294,5.30894 -40.63509,5.75415 -7.73264,0.54081 -15.19863,-0.004 -22.451,-0.99028 -14.30336,-1.82646 -27.78968,-0.96107 -41.427898,-7.44328 -5.186752,-2.31336 -15.346658,-3.66136 -20.368907,-4.97613 -7.252383,0.75724 -6.077844,8.35041 -5.765942,8.89123 2.800863,7.05644 7.186747,4.793 15.683446,10.25178 -5.880692,-3.25361 5.338653,-2.8459 10.681233,2.19677 7.893249,7.61806 21.289078,4.02749 32.122208,6.0537 2.73915,0.66984 5.69613,0.22069 9.01025,0.33698 17.24355,2.43393 33.30902,-2.434 50.76201,-5.33392 4.70647,-0.74888 8.34899,-3.5406 12.01217,-5.21737 2.73914,-0.97776 5.94632,-0.95698 8.23392,-1.5311 3.57269,-0.98189 6.44309,-2.57954 9.14957,-4.1398 -3.17032,1.2731 -5.40039,2.5088 -9.00186,3.76947 -2.43112,0.71568 1.17454,-2.42145 2.60763,-3.42831 0.57915,-0.56585 2.15607,0.8446 2.73104,0.27867 1.49063,-0.46593 2.64868,-1.58933 4.10243,-2.52961 0.57109,-0.55752 0.97349,1.02771 1.26081,0.7489 2.0698,-1.0318 3.09629,-3.54896 4.6118,-3.55315 0,0 3.12925,-0.29961 3.12925,-0.29961 0,0 1.78216,-0.54501 1.78216,-0.54501 0,0 1.0268,-0.81136 1.0268,-0.81136 0,0 -1.09241,-1.44369 -1.09241,-1.44369 0,0 2.09435,-0.18726 2.09435,-0.18726 0,0 -2.09435,0.18726 -2.09435,0.18726 0,0 1.09241,1.44369 1.09241,1.44369 0,0 8.14345,-5.67094 8.14345,-5.67094 0,0 -0.0959,-0.12058 -0.0959,-0.12058 -1.68387,0.79055 -3.44535,1.27737 -5.58497,1.00273 0.90337,0.0537 0.96089,0.51594 0.10177,0.93202 0,0 -0.9609,-0.51595 -0.9609,-0.51595 1.39624,-1.00275 2.77211,-1.99712 4.65703,-1.43126 0,0 0.7967,-0.88208 0.7967,-0.88208 0,0 0.98965,0.89454 0.98965,0.89454 0,0 0.96928,-0.54083 0.96928,-0.54083 -0.99804,-0.42444 -3.65929,-0.5991 -3.65509,-0.59505 z" />
    <path
       inkscape:connector-curvature="0"
       id="path3388"
       style="fill:#ffffff;fill-opacity:1;fill-rule:nonzero;stroke:none"
       d="m 211.60614,872.48806 c 0,0 0.81319,-0.38693 0.81319,-0.38693 0,0 -3.48642,0.84878 -3.48642,0.84878 0.82966,0.57414 1.7495,0.058 2.67323,-0.46185 z" />
    <path
       inkscape:connector-curvature="0"
       id="path3390"
       style="fill:#ffffff;fill-opacity:1;fill-rule:nonzero;stroke:none"
       d="m 62.419981,1039.5364 c 0,0 0.381699,-0.9403 0.381699,-0.9403 0,0 -0.706203,0.3162 -0.706203,0.3162 -0.24269,0.1498 0.06579,0.3661 0.324504,0.6241 z" />
    <path
       inkscape:connector-curvature="0"
       id="path3392"
       style="fill:#ffffff;fill-opacity:1;fill-rule:nonzero;stroke:none"
       d="m 63.134264,1037.7141 c 0,0 0.06291,-0.1665 0.06291,-0.1665 0,0 -0.101767,-0.1915 -0.101767,-0.1915 0,0 0.04194,0.3579 0.04194,0.3579 z" />
    <path
       inkscape:connector-curvature="0"
       id="path3394"
       style="fill:#ffffff;fill-opacity:1;fill-rule:nonzero;stroke:none"
       d="m 63.167231,1035.9083 c 0,0 -0.15591,0.8821 -0.15591,0.8821 0,0 0.15591,-0.8821 0.15591,-0.8821 z" />
    <path
       inkscape:connector-curvature="0"
       id="path3396"
       style="fill:#ffffff;fill-opacity:1;fill-rule:nonzero;stroke:none"
       d="m 62.448733,1037.1482 c 0,0 0.6406,0.2079 0.6406,0.2079 0,0 0,0 0,0 0,0 -0.0808,-0.5657 -0.0808,-0.5657 0,0 -0.562691,0.3577 -0.562691,0.3577 z" />
    <path
       inkscape:connector-curvature="0"
       id="path3398"
       style="fill:#ffffff;fill-opacity:1;fill-rule:nonzero;stroke:none"
       d="m 62.448733,1037.1482 c 0,0 -0.640877,0.1499 -0.640877,0.1499 0,0 0.640877,-0.1499 0.640877,-0.1499 z" />
    <path
       inkscape:connector-curvature="0"
       id="path3400"
       style="fill:#ffffff;fill-opacity:1;fill-rule:nonzero;stroke:none"
       d="m 57.069013,1035.1345 c -0.131835,-0.208 1.412408,0.2747 1.149663,-0.1582 -0.242731,-0.8987 -0.776043,-1.7475 -0.59536,-2.4632 -0.272664,-0.4243 1.593399,-0.4743 1.326419,-0.8903 -0.242689,-0.8987 -1.848064,-3.395 -2.045204,-2.2133 0,0 -0.176685,4.6598 -0.176685,4.6598 0,0 0.870697,4.3269 0.870697,4.3269 0,0 -0.476395,0.9737 -0.476395,0.9737 0,0 1.145746,-1.165 1.145746,-1.165 0.64868,-0.5243 -1.092426,-1.9221 -1.199076,-3.0705 z" />
    <path
       inkscape:connector-curvature="0"
       id="path3402"
       style="fill:#ffffff;fill-opacity:1;fill-rule:nonzero;stroke:none"
       d="m 59.154997,1046.2932 c 0,0 -0.32032,-0.6989 -0.32032,-0.6989 1.380067,-0.3162 1.215585,-1.2815 1.026811,-2.1969 0,0 -0.870686,0.075 -0.870686,0.075 -0.05376,0.4743 0.353236,0.674 0.813162,0.3994 -1.195201,0.5825 -1.67547,1.3481 -1.839686,2.2634 0,0 1.190719,0.1581 1.190719,0.1581 z" />
    <path
       inkscape:connector-curvature="0"
       id="path3404"
       style="fill:#ffffff;fill-opacity:1;fill-rule:nonzero;stroke:none"
       d="m 57.898366,1046.6926 c 0,0 0.06579,-0.5575 0.06579,-0.5575 0,0 -0.13494,-0.033 -0.13494,-0.033 0,0 0.02991,0.5909 0.02991,0.5909 0,0 0.04194,0 0.04194,0 z" />
    <path
       inkscape:connector-curvature="0"
       id="path3406"
       style="fill:#ffffff;fill-opacity:1;fill-rule:nonzero;stroke:none"
       d="m 62.64978,1031.9391 c 0,0 1.733005,-6.374 1.733005,-6.374 -0.278647,-0.2331 -0.611807,-0.4245 -0.385914,-0.5992 0,0 0.652894,-0.3578 0.652894,-0.3578 0,0 0.254665,-0.8986 0.254665,-0.8986 0,0 -0.06291,-0.3495 -0.06291,-0.3495 0,0 0,-0.011 0,-0.011 0,0 -0.652873,-0.1582 -0.652873,-0.1582 0,0 -0.628316,0.1998 -0.628316,0.1998 0,0 0.628316,-0.1998 0.628316,-0.1998 0,0 0.542009,-0.3909 0.542009,-0.3909 0,0 0.101973,-0.8821 0.101973,-0.8821 0,0 -0.101973,0.8821 -0.101973,0.8821 0,0 0.119797,0.5575 0.119797,0.5575 0,0 0.113969,0.1831 0.113969,0.1831 0,0 0.620236,-2.0304 0.620236,-2.0304 0,0 -0.05109,-0.466 -0.05109,-0.466 -0.119787,-0.5408 -0.233695,-1.0817 0.591464,-1.2399 0,0 0.119797,-0.366 0.119797,-0.366 0,0 -0.152805,0.042 -0.152805,0.042 0,0 0.173765,-0.108 0.173765,-0.108 0,0 0.500973,-1.531 0.500973,-1.531 0,0 -0.702308,-1.215 -0.702308,-1.215 0,0 0.858423,-0.2079 0.858423,-0.2079 0,0 -0.681646,-0.7322 -0.681646,-0.7322 0,0 -1.47025,0.5326 -1.47025,0.5326 -0.862319,0.2079 1.445672,1.0901 -0.131824,1.2232 1.577229,-0.133 -0.730772,-1.0152 0.131824,-1.2232 0,0 1.47025,-0.5326 1.47025,-0.5326 -0.188711,-0.5493 0.218728,-1.14 1.088222,-1.5145 0.550109,0.7572 -0.200738,1.19 -1.088222,1.5145 0,0 0.681646,0.7322 0.681646,0.7322 0,0 -0.858423,0.2079 -0.858423,0.2079 0,0 0.702308,1.215 0.702308,1.215 0,0 1.00613,-3.0623 1.00613,-3.0623 2.320285,-6.6819 2.854203,-13.1725 4.361316,-20.2663 0,0 3.120855,-11.15459 3.120855,-11.15459 2.468299,-7.21866 0.722979,-14.05447 5.199365,-21.27314 1.568512,-2.78344 1.05947,-8.1465 0.993537,-10.92579 -2.53779,-3.85274 -9.53967,-2.13022 -9.933973,-1.98879 -5.995761,2.01376 -2.767917,3.89433 -6.463757,8.28798 2.115023,-3.01233 3.69584,2.49218 -0.509361,5.19656 -6.377461,3.86935 -1.827392,10.16024 -3.782147,15.25278 0,0 -0.566567,4.19391 -0.566567,4.19391 -2.767917,7.78447 -0.792798,15.49411 -2.459922,23.58238 -0.257656,2.1634 0.9528,4.3103 1.375586,6.2658 0.02991,1.3896 -1.030718,2.6712 -1.232053,3.7528 -0.307707,1.6976 -0.02991,3.2785 0.402691,4.8347 0,0 -0.110855,-4.6682 -0.110855,-4.6682 0.122892,-1.19 1.881031,1.1982 2.180648,2.0719 0.290623,0.4079 -1.564339,0.5825 -1.268895,0.982 -0.134744,0.724 0.447633,1.5394 0.747538,2.4131 0.287652,0.4077 -1.285352,0.033 -1.141552,0.2332 0.158819,1.1399 2.028459,2.4047 1.465748,2.9955 0,0 -1.018404,1.2649 -1.018404,1.2649 0,0 -0.311922,0.8404 -0.311922,0.8404 0,0 0.251695,0.6574 0.251695,0.6574 0,0 1.728821,0.1414 1.728821,0.1414 0,0 -0.763728,0.8238 -0.763728,0.8238 0,0 0.763728,-0.8238 0.763728,-0.8238 0,0 -1.728821,-0.1414 -1.728821,-0.1414 0,0 1.285362,5.0925 1.285362,5.0925 0,0 0.143873,0.018 0.143873,0.018 0.06579,-0.9236 0.422776,-1.7308 1.609589,-2.4048 -0.447653,0.3079 -0.870419,0.1499 -0.850035,-0.3245 0,0 0.870686,-0.1498 0.870686,-0.1498 0.245702,0.8904 0.484505,1.7974 -0.833834,2.2468 0,0 0.40269,0.6407 0.40269,0.6407 0,0 -1.199096,-0.011 -1.199096,-0.011 0,0 0,0.5492 0,0.5492 0.866512,-0.1582 2.164159,-1.0485 2.164159,-1.0485 z" />
    <path
       inkscape:connector-curvature="0"
       id="path3408"
       style="fill:#ffffff;fill-opacity:1;fill-rule:nonzero;stroke:none"
       d="m 64.772893,1022.7941 c 0,0 0.04482,0.4577 0.04482,0.4577 0,0 0.546234,-1.6975 0.546234,-1.6975 -0.829671,0.1498 -0.710429,0.6907 -0.591464,1.2398 z" />
    <path
       inkscape:connector-curvature="0"
       id="path3410"
       style="fill:#ffffff;fill-opacity:1;fill-rule:nonzero;stroke:none"
       d="m 102.98943,942.457 c 0,0 0.36972,-0.52427 0.36972,-0.52427 0,0 -0.66544,0.0177 -0.66544,0.0177 -0.22472,0.0374 0.06,0.26622 0.29661,0.50756 z" />
    <path
       inkscape:connector-curvature="0"
       id="path3412"
       style="fill:#ffffff;fill-opacity:1;fill-rule:nonzero;stroke:none"
       d="m 103.71212,941.45428 c 0,0 0.0568,-0.0956 0.0568,-0.0956 0,0 -0.0959,-0.15382 -0.0959,-0.15382 0,0 0.0359,0.24951 0.0359,0.24951 z" />
    <path
       inkscape:connector-curvature="0"
       id="path3414"
       style="fill:#ffffff;fill-opacity:1;fill-rule:nonzero;stroke:none"
       d="m 103.76575,940.26849 c 0,0 -0.15591,0.54092 -0.15591,0.54092 0,0 0.15591,-0.54092 0.15591,-0.54092 z" />
    <path
       inkscape:connector-curvature="0"
       id="path3416"
       style="fill:#ffffff;fill-opacity:1;fill-rule:nonzero;stroke:none"
       d="m 103.07154,940.89259 c 0,0 0.60373,0.30791 0.60373,0.30791 0,0 0,0.004 0,0.004 0,0 -0.0658,-0.39519 -0.0658,-0.39519 0,0 -0.53782,0.0834 -0.53782,0.0834 z" />
    <path
       inkscape:connector-curvature="0"
       id="path3418"
       style="fill:#ffffff;fill-opacity:1;fill-rule:nonzero;stroke:none"
       d="m 103.07154,940.89259 c 0,0 -0.60373,-0.0751 -0.60373,-0.0751 0,0 0.60373,0.0751 0.60373,0.0751 z" />
    <path
       inkscape:connector-curvature="0"
       id="path3420"
       style="fill:#ffffff;fill-opacity:1;fill-rule:nonzero;stroke:none"
       d="m 98.040882,938.13408 c -0.128915,-0.17054 1.322523,0.55755 1.075948,0.21218 -0.224731,-0.63659 -0.726906,-1.31476 -0.558517,-1.71831 -0.254665,-0.33709 1.503197,0.11664 1.252437,-0.22038 -0.224731,-0.6366 -1.757594,-2.58788 -1.942153,-1.90563 0,0 -0.152805,2.86672 -0.152805,2.86672 0,0 0.796705,2.97063 0.796705,2.97063 0,0 -0.439543,0.49097 -0.439543,0.49097 0,0 1.063664,-0.42024 1.063664,-0.42024 0.578861,-0.17447 -0.993866,-1.5186 -1.09663,-2.27586 z" />
    <path
       inkscape:connector-curvature="0"
       id="path3422"
       style="fill:#ffffff;fill-opacity:1;fill-rule:nonzero;stroke:none"
       d="m 99.880548,946.04347 c 0,0 -0.275656,-0.58666 -0.275656,-0.58666 1.252428,0.22463 1.145758,-0.49518 0.973468,-1.16499 0,0 -0.800875,-0.21641 -0.800875,-0.21641 0,0 0.739165,0.52002 0.739165,0.52002 -1.104705,0.0242 -1.552347,0.37031 -1.704248,0.94447 0,0 1.067539,0.50347 1.067539,0.50347 z" />
    <path
       inkscape:connector-curvature="0"
       id="path3424"
       style="fill:#ffffff;fill-opacity:1;fill-rule:nonzero;stroke:none"
       d="m 98.747384,945.89786 c 0,0 0.06579,-0.35789 0.06579,-0.35789 0,0 -0.122892,-0.0708 -0.122892,-0.0708 0,0 0.02991,0.41192 0.02991,0.41192 0,0 0.03598,0.0177 0.03598,0.0177 z" />
    <path
       inkscape:connector-curvature="0"
       id="path3426"
       style="fill:#ffffff;fill-opacity:1;fill-rule:nonzero;stroke:none"
       d="m 103.30975,937.54752 c 0,0 1.7414,-3.6739 1.7414,-3.6739 -0.26368,-0.20792 -0.58337,-0.40355 -0.36555,-0.46183 0,0 0.6322,-0.0916 0.6322,-0.0916 0,0 0.25167,-0.51178 0.25167,-0.51178 0,0 -0.0568,-0.23707 -0.0568,-0.23707 0,0 0,-0.008 0,-0.008 0,0 -0.62832,-0.24134 -0.62832,-0.24134 0,0 -0.60764,-0.0118 -0.60764,-0.0118 0,0 0.60764,0.0118 0.60764,0.0118 0,0 0.52165,-0.13317 0.52165,-0.13317 0,0 0.10775,-0.53674 0.10775,-0.53674 0,0 -0.10775,0.53674 -0.10775,0.53674 0,0 0.11397,0.38275 0.11397,0.38275 0,0 0.10775,0.14143 0.10775,0.14143 0,0 0.61213,-1.16906 0.61213,-1.16906 0,0 -0.0448,-0.30379 -0.0448,-0.30379 -0.10776,-0.37032 -0.21874,-0.73638 0.58307,-0.66983 0,0 0.11397,-0.20825 0.11397,-0.20825 0,0 -0.14677,-0.004 -0.14677,-0.004 0,0 0.16774,-0.0332 0.16774,-0.0332 0,0 0.49706,-0.88208 0.49706,-0.88208 0,0 -0.67352,-0.90279 -0.67352,-0.90279 0,0 0.83352,0.0303 0.83352,0.0303 0,0 -0.65706,-0.59078 -0.65706,-0.59078 0,0 -1.43311,0.058 -1.43311,0.058 -0.83773,-0.0374 1.39623,0.96114 -0.13183,0.74062 1.52778,0.22038 -0.70621,-0.77806 0.13183,-0.74062 0,0 1.43311,-0.058 1.43311,-0.058 -0.18581,-0.38275 0.21273,-0.67817 1.06366,-0.76143 0.53393,0.58248 -0.20674,0.72396 -1.06366,0.76143 0,0 0.65706,0.59078 0.65706,0.59078 0,0 -0.83352,-0.0303 -0.83352,-0.0303 0,0 0.67352,0.90279 0.67352,0.90279 0,0 0.99387,-1.75992 0.99387,-1.75992 2.37359,-3.79862 2.94857,-7.90104 4.47604,-12.15729 0,0 3.15412,-6.68194 3.15412,-6.68194 2.49677,-4.33116 0.76795,-8.69559 5.26047,-12.93944 1.56882,-1.65598 1.07176,-5.04685 1.01423,-6.80259 -2.52552,-2.56294 -9.5232,-1.69755 -9.9175,-1.64346 -5.98736,0.98606 -2.76792,2.26334 -6.45956,4.75137 2.11084,-1.72657 3.68356,1.72252 -0.51354,3.12052 -6.361012,1.95131 -1.8397,6.01621 -3.78215,8.95363 0,0 -0.57077,2.46305 -0.57077,2.46305 -2.722683,4.39356 -0.83777,9.19492 -2.414678,13.65929 -0.218717,1.22736 0.870419,2.67521 1.322246,3.94423 0.02991,0.84045 -0.989652,1.41876 -1.178713,2.02621 -0.290643,0.96526 0,1.97216 0.40269,3.01639 0,0 -0.119787,-2.85834 -0.119787,-2.85834 0.113959,-0.69478 1.827382,1.09843 2.115022,1.70174 0.28464,0.31202 -1.515489,0.0334 -1.227847,0.34117 -0.125811,0.41608 0.435067,1.03597 0.726877,1.64343 0.27865,0.31201 -1.236238,-0.25801 -1.100816,-0.10404 0.1559,0.72803 1.950846,1.93465 1.412736,2.17597 0,0 -1.022319,0.53257 -1.022319,0.53257 0,0 -0.299926,0.44514 -0.299926,0.44514 0,0 0.24271,0.47018 0.24271,0.47018 0,0 1.646715,0.50342 1.646715,0.50342 0,0 -0.72688,0.33698 -0.72688,0.33698 0,0 0.72688,-0.33698 0.72688,-0.33698 0,0 -1.646715,-0.50342 -1.646715,-0.50342 0,0 1.215565,3.53653 1.215565,3.53653 0,0 0.14076,0.046 0.14076,0.046 0.06,-0.57006 0.4024,-0.9944 1.53166,-1.13581 0,0 -0.80478,-0.4161 -0.80478,-0.4161 0,0 0.82936,0.11664 0.82936,0.11664 0.23071,0.63246 0.45183,1.28149 -0.80058,1.23572 0,0 0.37781,0.51595 0.37781,0.51595 0,0 -1.13347,-0.31622 -1.13347,-0.31622 0,0 0,0.35363 0,0.35363 0.82126,0.12471 2.05331,-0.12471 2.05331,-0.12904 z" />
    <path
       inkscape:connector-curvature="0"
       id="path3428"
       style="fill:#ffffff;fill-opacity:1;fill-rule:nonzero;stroke:none"
       d="m 105.44934,932.19278 c 0,0 0.0359,0.30369 0.0359,0.30369 0,0 0.53813,-0.9694 0.53813,-0.9694 -0.80089,-0.0793 -0.69001,0.2911 -0.57498,0.66571 z" />
    <path
       inkscape:connector-curvature="0"
       id="path3430"
       style="fill:#ffffff;fill-opacity:1;fill-rule:nonzero;stroke:none"
       d="m 231.44565,1042.2409 c 0,0 -0.17978,-1.0901 -0.17978,-1.0901 0,0 -0.43145,0.6739 -0.43145,0.6739 -0.11979,0.2744 0.25766,0.3163 0.61212,0.4162 z" />
    <path
       inkscape:connector-curvature="0"
       id="path3432"
       style="fill:#ffffff;fill-opacity:1;fill-rule:nonzero;stroke:none"
       d="m 231.10888,1040.1356 c 0,0 -0.0299,-0.1998 -0.0299,-0.1998 0,0 -0.17978,-0.1246 -0.17978,-0.1246 0,0 0.20974,0.3245 0.20974,0.3245 z" />
    <path
       inkscape:connector-curvature="0"
       id="path3434"
       style="fill:#ffffff;fill-opacity:1;fill-rule:nonzero;stroke:none"
       d="m 230.25884,1038.3631 c 0,0 0.29063,0.9403 0.29063,0.9403 0,0 -0.29063,-0.9403 -0.29063,-0.9403 z" />
    <path
       inkscape:connector-curvature="0"
       id="path3436"
       style="fill:#ffffff;fill-opacity:1;fill-rule:nonzero;stroke:none"
       d="m 230.23397,1039.9441 c 0,0 0.65706,-0.1414 0.65706,-0.1414 0,0 0,0.01 0,0.01 0,0 -0.34904,-0.5076 -0.34904,-0.5076 0,0 -0.31611,0.6408 -0.31611,0.6408 z" />
    <path
       inkscape:connector-curvature="0"
       id="path3438"
       style="fill:#ffffff;fill-opacity:1;fill-rule:nonzero;stroke:none"
       d="m 230.23397,1039.9441 c 0,0 -0.48451,0.491 -0.48451,0.491 0,0 0.48451,-0.491 0.48451,-0.491 z" />
    <path
       inkscape:connector-curvature="0"
       id="path3440"
       style="fill:#ffffff;fill-opacity:1;fill-rule:nonzero;stroke:none"
       d="m 224.58339,1040.8677 c -0.22172,-0.1414 1.35519,-0.4908 0.91983,-0.7738 -0.64897,-0.7489 -1.54004,-1.3147 -1.74948,-2.1135 -0.44344,-0.283 1.14575,-1.3064 0.70621,-1.5894 -0.66516,-0.7489 -3.32223,-2.4215 -2.89917,-1.1401 0,0 2.20133,4.7515 2.20133,4.7515 0,0 2.97705,3.7695 2.97705,3.7695 0,0 0.13184,1.2149 0.13184,1.2149 0,0 0.33256,-1.7641 0.33256,-1.7641 0.2517,-0.8572 -1.98348,-1.2731 -2.6199,-2.355 z" />
    <path
       inkscape:connector-curvature="0"
       id="path3442"
       style="fill:#ffffff;fill-opacity:1;fill-rule:nonzero;stroke:none"
       d="m 232.23394,1050.512 c 0,0 -0.6364,-0.5241 -0.6364,-0.5241 0.97737,-1.0568 0.36525,-1.9223 -0.28463,-2.6795 0,0 -0.69811,0.5575 -0.69811,0.5575 0.20073,0.4826 0.65705,0.4494 0.89917,-0.075 -0.75146,1.2482 -0.68166,2.2134 -0.4024,3.2036 0,0 1.12117,-0.4826 1.12117,-0.4826 z" />
    <path
       inkscape:connector-curvature="0"
       id="path3446"
       style="fill:#ffffff;fill-opacity:1;fill-rule:nonzero;stroke:none"
       d="m 227.8316,1034.7933 c 0,0 -1.62635,-7.0897 -1.62635,-7.0897 -0.34875,-0.092 -0.73498,-0.1247 -0.61184,-0.4077 0,0 0.41888,-0.674 0.41888,-0.674 0,0 -0.17669,-1.007 -0.17669,-1.007 0,0 -0.21272,-0.3244 -0.21272,-0.3244 0,0 0,0 0,0 0,0 -0.6529,0.1499 -0.6529,0.1499 0,0 -0.47639,0.4993 -0.47639,0.4993 0,0 0.47639,-0.4993 0.47639,-0.4993 0,0 0.30383,-0.6492 0.30383,-0.6492 0,0 -0.30771,-0.9235 -0.30771,-0.9235 0,0 0.30771,0.9235 0.30771,0.9235 0,0 0.35746,0.4994 0.35746,0.4994 0,0 0.1858,0.1247 0.1858,0.1247 0,0 -0.36555,-2.3133 -0.36555,-2.3133 0,0 -0.2517,-0.4327 -0.2517,-0.4327 -0.34905,-0.491 -0.69811,-0.9737 -0.0299,-1.5145 0,0 -0.0568,-0.4161 -0.0568,-0.4161 0,0 -0.11979,0.108 -0.11979,0.108 0,0 0.10775,-0.1831 0.10775,-0.1831 0,0 -0.24271,-1.7641 -0.24271,-1.7641 0,0 -1.17869,-0.8903 -1.17869,-0.8903 0,0 0.67774,-0.5909 0.67774,-0.5909 0,0 -0.93632,-0.4243 -0.93632,-0.4243 0,0 -1.08823,1.1982 -1.08823,1.1982 -0.68164,0.5909 1.79054,0.4327 0.43534,1.2815 1.3552,-0.8488 -1.11698,-0.6906 -0.43534,-1.2815 0,0 1.08823,-1.1982 1.08823,-1.1982 -0.40239,-0.466 -0.28466,-1.2482 0.34905,-2.0055 0.82128,0.5243 0.3161,1.2815 -0.34905,2.0055 0,0 0.93632,0.4243 0.93632,0.4243 0,0 -0.67774,0.5909 -0.67774,0.5909 0,0 1.17869,0.8903 1.17869,0.8903 0,0 -0.43114,-3.4949 -0.43114,-3.4949 -0.73919,-7.6138 -2.45569,-14.3458 -2.84193,-22.22601 -0.33257,-4.2313 0.0419,-8.39191 0.47249,-12.43186 0.97319,-7.9967 -1.62632,-15.1113 2.15192,-23.1746 1.34679,-3.04969 0.50095,-8.6124 0.41047,-11.45822 -2.59114,-3.74044 -9.55195,-2.21767 -9.95854,-1.97635 -5.95051,2.34657 -2.75563,4.41441 -6.13957,9.58186 1.96312,-3.52399 3.76176,2.50054 -0.0959,5.94139 -6.03681,5.10503 -0.61185,11.81193 -1.69197,17.86564 -0.29063,1.53529 0.22172,3.08712 0.29991,4.88872 -1.05976,9.54441 2.82934,17.79493 4.46796,27.48083 0.59956,2.5462 2.56659,4.4435 3.84806,6.3657 0.61992,1.4728 0.23071,3.3617 0.55851,4.5434 0.50905,1.8972 1.48252,3.3867 2.57881,4.7764 0,0 -2.23815,-4.7349 -2.23815,-4.7349 -0.43537,-1.2814 2.23815,0.3662 2.90334,1.1151 0.44375,0.2746 -1.13735,1.3232 -0.68972,1.5894 0.21273,0.8071 1.10048,1.3564 1.76987,2.1053 0.44343,0.2744 -1.12929,0.649 -0.90756,0.7904 0.65705,1.0818 2.89914,1.4562 2.66934,2.3217 0,0 -0.29992,1.7808 -0.29992,1.7808 0,0 0.14677,0.9902 0.14677,0.9902 0,0 0.5543,0.5408 0.5543,0.5408 0,0 1.5811,-0.724 1.5811,-0.724 0,0 -0.25168,1.1983 -0.25168,1.1983 0,0 0.25168,-1.1983 0.25168,-1.1983 0,0 -1.5811,0.724 -1.5811,0.724 0,0 3.68386,4.377 3.68386,4.377 0,0 0.13473,-0.058 0.13473,-0.058 -0.40657,-0.932 -0.50514,-1.9222 0.19183,-3.1787 -0.23373,0.5244 -0.68165,0.5826 -0.89918,0.1084 0,0 0.68163,-0.5825 0.68163,-0.5825 0.66096,0.7489 1.32225,1.5062 0.40239,2.6213 0,0 0.66936,0.4159 0.66936,0.4159 0,0 -1.04719,0.6158 -1.04719,0.6158 0,0 0.26668,0.541 0.26668,0.541 0.67744,-0.6075 1.35518,-2.147 1.35518,-2.147 z" />
    <path
       inkscape:connector-curvature="0"
       id="path3448"
       style="fill:#ffffff;fill-opacity:1;fill-rule:nonzero;stroke:none"
       d="m 225.30608,1024.7579 c 0,0 0.24567,0.4411 0.24567,0.4411 0,0 -0.27864,-1.9472 -0.27864,-1.9472 -0.67324,0.5326 -0.32419,1.0152 0.033,1.5061 z" />
    <path
       inkscape:connector-curvature="0"
       id="path3450"
       style="fill:#ffffff;fill-opacity:1;fill-rule:nonzero;stroke:none"
       d="m 191.49189,937.10228 c 0,0 -0.0299,-0.49923 -0.0299,-0.49923 0,0 -0.50519,0.38275 -0.50519,0.38275 -0.1557,0.14577 0.20674,0.11233 0.53394,0.11666 z" />
    <path
       inkscape:connector-curvature="0"
       id="path3452"
       style="fill:#ffffff;fill-opacity:1;fill-rule:nonzero;stroke:none"
       d="m 191.43016,936.14121 c 0,0 0,-0.0874 0,-0.0874 0,0 -0.16483,-0.0334 -0.16483,-0.0334 0,0 0.17377,0.12058 0.17377,0.12058 z" />
    <path
       inkscape:connector-curvature="0"
       id="path3454"
       style="fill:#ffffff;fill-opacity:1;fill-rule:nonzero;stroke:none"
       d="m 190.77729,935.43389 c 0,0 0.19183,0.39941 0.19183,0.39941 0,0 -0.19183,-0.39941 -0.19183,-0.39941 z" />
    <path
       inkscape:connector-curvature="0"
       id="path3456"
       style="fill:#ffffff;fill-opacity:1;fill-rule:nonzero;stroke:none"
       d="m 190.60083,936.18696 c 0,0 0.65285,-0.17053 0.65285,-0.17053 0,0 0,0.004 0,0.004 0,0 -0.28762,-0.18725 -0.28762,-0.18725 0,0 -0.36973,0.35373 -0.36973,0.35373 z" />
    <path
       inkscape:connector-curvature="0"
       id="path3458"
       style="fill:#ffffff;fill-opacity:1;fill-rule:nonzero;stroke:none"
       d="m 190.60083,936.18696 c 0,0 -0.51745,0.30371 -0.51745,0.30371 0,0 0.51745,-0.30371 0.51745,-0.30371 z" />
    <path
       inkscape:connector-curvature="0"
       id="path3460"
       style="fill:#ffffff;fill-opacity:1;fill-rule:nonzero;stroke:none"
       d="m 185.03623,937.52662 c -0.19181,-0.0177 1.36747,-0.44094 0.97736,-0.48261 -0.5462,-0.2037 -1.32642,-0.26199 -1.42079,-0.55334 -0.38623,-0.0212 1.24824,-0.79883 0.8623,-0.828 -0.54621,-0.19971 -2.82543,-0.23281 -2.58722,0.19553 0,0 1.4825,1.46456 1.4825,1.46456 0,0 2.37783,1.10254 2.37783,1.10254 0,0 -0.0511,0.50756 -0.0511,0.50756 0,0 0.57917,-0.81129 0.57917,-0.81129 0.36943,-0.42023 -1.71653,-0.27867 -2.22169,-0.59499 z" />
    <path
       inkscape:connector-curvature="0"
       id="path3462"
       style="fill:#ffffff;fill-opacity:1;fill-rule:nonzero;stroke:none"
       d="m 191.24141,940.79688 c 0,0 -0.57917,-0.16642 -0.57917,-0.16642 1.09243,-0.55331 0.57917,-0.89033 0.0448,-1.1732 0,0 -0.75566,0.32029 -0.75566,0.32029 0,0 0.89108,-0.12058 0.89108,-0.12058 -0.86233,0.62419 -0.96898,1.05268 -0.73498,1.44798 0,0 1.13347,-0.30796 1.13347,-0.30796 z" />
    <path
       inkscape:connector-curvature="0"
       id="path3464"
       style="fill:#ffffff;fill-opacity:1;fill-rule:nonzero;stroke:none"
       d="m 190.28052,941.33779 c 0,0 -0.17376,-0.23284 -0.17376,-0.23284 0,0 -0.13494,0.0334 -0.13494,0.0334 0,0 0.26967,0.21218 0.26967,0.21218 0,0 0.036,-0.0118 0.036,-0.0118 z" />
    <path
       inkscape:connector-curvature="0"
       id="path3466"
       style="fill:#ffffff;fill-opacity:1;fill-rule:nonzero;stroke:none"
       d="m 188.83094,934.19818 c 0,0 -1.0268,-2.96237 -1.0268,-2.96237 0,0 -0.54621,0.008 -0.54621,0.008 0,0 0.40657,-0.47848 0.40657,-0.47848 0,0 -0.12872,-0.43684 -0.12872,-0.43684 0,0 -0.17978,-0.0793 -0.17978,-0.0793 0,0 0,0 0,0 0,0 -0.59147,0.32036 -0.59147,0.32036 0,0 -0.44344,0.42016 -0.44344,0.42016 0,0 0.44344,-0.42016 0.44344,-0.42016 0,0 0.29064,-0.43687 0.29064,-0.43687 0,0 -0.24269,-0.3412 -0.24269,-0.3412 0,0 0.24269,0.3412 0.24269,0.3412 0,0 0.30801,0.11664 0.30801,0.11664 0,0 0.15882,-0.008 0.15882,-0.008 0,0 -0.26368,-1.03597 -0.26368,-1.03597 0,0 -0.21271,-0.12058 -0.21271,-0.12058 -0.29664,-0.10799 -0.57917,-0.19975 0,-0.77805 0,0 0,-0.17054 0,-0.17054 0,0 -0.11397,0.10404 -0.11397,0.10404 0,0 0.11086,-0.13296 0.11086,-0.13296 0,0 -0.033,-0.6949 -0.033,-0.6949 0,0 -0.96897,0.0118 -0.96897,0.0118 0,0 0.68163,-0.47854 0.68163,-0.47854 0,0 -0.82964,0.0956 -0.82964,0.0956 0,0 -1.10473,0.882 -1.10473,0.882 -0.65286,0.53672 1.5976,-0.37031 0.31222,0.52423 1.28538,-0.89454 -0.96508,0.0118 -0.31222,-0.52423 0,0 1.10473,-0.882 1.10473,-0.882 -0.34877,-0.0956 -0.18872,-0.48681 0.48479,-0.91121 0.74725,0.0212 0.1858,0.39944 -0.48479,0.91121 0,0 0.82964,-0.0956 0.82964,-0.0956 0,0 -0.68163,0.47854 -0.68163,0.47854 0,0 0.96897,-0.0118 0.96897,-0.0118 0,0 -0.0359,-1.27314 -0.0359,-1.27314 0.21872,-2.99974 -0.38203,-5.84563 -0.033,-9.17826 0,0 1.55234,-5.33393 1.55234,-5.33393 1.57302,-3.45746 -0.81287,-6.3532 3.05555,-9.97298 1.33872,-1.36462 0.45183,-3.69876 0.22471,-4.91787 -2.74753,-1.48944 -9.63854,-0.40354 -10.02445,-0.28716 -5.86002,1.31896 -2.53363,1.99715 -5.89299,4.3479 1.88913,-1.58105 3.84777,0.8612 -0.0959,2.50466 -6.04517,2.42563 -0.88717,5.02604 -2.27113,7.65552 -0.35327,0.66565 0,1.32303 -0.0448,2.09689 -1.68779,4.22724 1.24431,7.52655 1.65509,12.22807 0.27865,1.26899 1.97123,2.02624 2.97736,2.81256 0.58307,0.92787 0.32448,2.41729 0.72269,3.32016 0.78022,1.67678 1.5853,2.00125 2.27114,1.85144 -0.37784,-0.17054 -0.98996,-0.3952 -1.95085,-1.90971 -0.48449,-0.86539 2.13152,-0.28718 2.72687,-0.0912 0.41888,0.046 -0.92405,1.36889 -0.60373,1.20653 0.10177,0.2289 0.81316,0.0504 1.33481,0.0793 0.36555,-0.0708 -1.04329,0.7323 -0.86233,0.69482 0.46803,0.12902 2.45571,-0.54501 2.18455,-0.0956 0,0 -0.41468,0.80717 -0.41468,0.80717 0,0 0.0629,0.33284 0.0629,0.33284 0,0 0.47639,0.0374 0.47639,0.0374 0,0 1.53166,-0.74892 1.53166,-0.74892 0,0 -0.32446,0.56997 -0.32446,0.56997 0,0 0.32446,-0.56997 0.32446,-0.56997 0,0 -1.53166,0.74892 -1.53166,0.74892 0,0 2.96897,1.01516 2.96897,1.01516 0,0 0.13473,-0.0537 0.13473,-0.0537 -0.27864,-0.33698 -0.25466,-0.75306 0.53785,-1.51033 0,0 -0.85814,0.27047 -0.85814,0.27047 0,0 0.70623,-0.44103 0.70623,-0.44103 0.53811,0.18725 1.08822,0.41189 0.0897,1.12757 0,0 0.58756,0.0537 0.58756,0.0537 0,0 -1.06366,0.49932 -1.06366,0.49932 0,0 0.19183,0.19119 0.19183,0.19119 0.71459,-0.4077 1.52748,-1.27728 1.52358,-1.28143 z" />
    <path
       inkscape:connector-curvature="0"
       id="path3468"
       style="fill:#ffffff;fill-opacity:1;fill-rule:nonzero;stroke:none"
       d="m 187.08954,930.09997 c 0,0 0.20674,0.12472 0.20674,0.12472 0,0 -0.19775,-0.87376 -0.19775,-0.87376 -0.59954,0.54918 -0.3119,0.6408 0,0.74893 z" />
    <path
       inkscape:connector-curvature="0"
       id="path3470"
       style="fill:#ff6949;fill-opacity:1;fill-rule:nonzero;stroke:none"
       d="m 123.61724,1039.6196 c 0,0 0,-48.47107 0,-48.47107 0,0 2.64868,-16.00588 20.28264,-16.00588 17.63397,0 18.76744,19.60893 18.76744,19.60893 0,0 0,44.41042 0,44.41042" />
  </g>
</svg>
