<?xml version="1.0" encoding="UTF-8" standalone="no"?>
<!-- Created with Inkscape (http://www.inkscape.org/) -->

<svg
   xmlns:dc="http://purl.org/dc/elements/1.1/"
   xmlns:cc="http://creativecommons.org/ns#"
   xmlns:rdf="http://www.w3.org/1999/02/22-rdf-syntax-ns#"
   xmlns:svg="http://www.w3.org/2000/svg"
   xmlns="http://www.w3.org/2000/svg"
   xmlns:sodipodi="http://sodipodi.sourceforge.net/DTD/sodipodi-0.dtd"
   xmlns:inkscape="http://www.inkscape.org/namespaces/inkscape"
   width="85.295563mm"
   height="56.433254mm"
   viewBox="0 0 302.22837 199.96034"
   id="svg3979"
   version="1.1"
   inkscape:version="0.91 r13725"
   sodipodi:docname="logo.svg">
  <defs
     id="defs3981" />
  <sodipodi:namedview
     id="base"
     pagecolor="#ffffff"
     bordercolor="#666666"
     borderopacity="1.0"
     inkscape:pageopacity="0.0"
     inkscape:pageshadow="2"
     inkscape:zoom="1.4"
     inkscape:cx="65.706495"
     inkscape:cy="75.156545"
     inkscape:document-units="px"
     inkscape:current-layer="layer1"
     showgrid="false"
     inkscape:window-width="1366"
     inkscape:window-height="745"
     inkscape:window-x="-8"
     inkscape:window-y="-8"
     inkscape:window-maximized="1"
     fit-margin-top="0"
     fit-margin-left="0"
     fit-margin-right="0"
     fit-margin-bottom="0" />
  <metadata
     id="metadata3984">
    <rdf:RDF>
      <cc:Work
         rdf:about="">
        <dc:format>image/svg+xml</dc:format>
        <dc:type
           rdf:resource="http://purl.org/dc/dcmitype/StillImage" />
        <dc:title />
      </cc:Work>
    </rdf:RDF>
  </metadata>
  <g
     inkscape:label="Layer 1"
     inkscape:groupmode="layer"
     id="layer1"
     transform="translate(-244.76734,-217.00259)">
    <path
       inkscape:connector-curvature="0"
       id="path3722"
       d="m 540.8069,280.28768 -3.42039,0.97754 1.9544,0.48844 1.46599,-1.46598 z"
       style="fill:#231f20;fill-opacity:1;fill-rule:evenodd;stroke:none" />
    <path
       inkscape:connector-curvature="0"
       id="path3724"
       d="m 534.71101,281.75366 -0.97689,0.48842 -0.23263,0.4891 1.20956,-0.97752 z"
       style="fill:#231f20;fill-opacity:1;fill-rule:evenodd;stroke:none" />
    <path
       inkscape:connector-curvature="0"
       id="path3726"
       d="m 533.73412,283.4523 c -0.48912,-0.46537 -0.97752,-0.72112 -0.23263,-1.21022 l 0.23263,0 -1.95441,0.74485 1.95441,0.46537 z"
       style="fill:#231f20;fill-opacity:1;fill-rule:evenodd;stroke:none" />
    <path
       inkscape:connector-curvature="0"
       id="path3728"
       d="m 533.85013,288.82707 c -0.48845,0.48844 -0.97687,-1.23329 -1.93133,-0.48907 -2.44283,0.97751 -4.39724,2.41977 -6.81701,3.16459 -0.97686,0.48847 -3.16399,-0.74482 -4.14148,0 -2.44288,0.97689 -9.00411,5.09532 -4.8857,3.88574 6.09589,-1.69864 9.7483,-3.39727 14.86732,-5.11903 l 12.16803,-5.58371 3.88574,-0.97755 -5.35105,0.72112 c -2.18708,0.25633 -4.37415,3.16462 -7.79452,4.39791 z"
       style="fill:#231f20;fill-opacity:1;fill-rule:evenodd;stroke:none" />
    <path
       inkscape:connector-curvature="0"
       id="path3734"
       d="m 517.84249,288.338 -20.94014,5.35169 -1.46533,0.72112 -1.69861,-0.23262 -3.16399,0.48844 -0.97755,0.4891 c -0.48842,0.23262 -0.23262,0.48844 0.25575,0.72111 l 0.97752,0.25575 -0.97752,-0.25575 -1.698,-0.23262 -2.93193,0.72111 2.93193,-0.72111 1.44223,-0.48847 0.48844,-0.25633 -6.817,1.23329 -1.44224,0.46537 c -1.46596,0.48844 -3.16462,0.97686 -4.1415,0.48844 l -1.23327,0.25633 0.25575,0 -0.48842,0 -5.35107,0.97687 -3.16462,1.46596 c 0,0 -0.97687,-0.48845 -1.23329,-0.74485 l -1.93065,1.21022 2.90819,0.97686 c 1.23329,0.48842 2.18708,-2.18708 3.90884,-0.97686 -1.72176,-1.21022 -2.67555,1.46528 -3.90884,0.97686 l -2.90819,-0.97686 c -1.46597,0.74417 -3.65307,0.74417 -5.37478,0.25575 1.95441,-0.97755 3.65307,-0.72112 5.37478,-0.25575 l 1.93065,-1.21022 c 0.25633,0.25633 1.23329,0.74485 1.23329,0.74485 l 3.16462,-1.46596 -10.23738,1.46596 c -22.38303,2.90819 -43.32249,6.32856 -66.70546,7.53812 -12.65717,0.97752 -24.82588,0.72112 -36.99461,0 -23.87137,-1.20953 -45.76534,0.48845 -69.38098,-5.60744 -9.00409,-1.93066 -26.0585,-2.9082 -34.80683,-4.14149 -11.93606,0.97754 -7.07344,8.77209 -6.58436,9.26051 6.32858,7.30548 12.65717,4.62993 27.50075,9.72523 -10.21365,-2.90822 7.79454,-3.16397 17.28773,1.72173 13.88978,7.30611 34.34148,2.90887 52.09393,4.63056 4.39723,0.46471 9.02716,-0.25633 14.37886,-0.25633 27.26807,1.69861 52.58237,-3.65241 80.82794,-7.30548 7.53878,-0.97749 13.63467,-3.88573 19.70686,-5.84014 4.63058,-1.20954 9.74893,-1.20954 13.40202,-1.95438 5.83946,-0.97687 10.70272,-2.90822 15.33265,-4.60685 -5.3517,1.44288 -9.00411,2.90819 -15.1,4.37415 -3.88574,0.72112 2.44285,-2.67552 4.86262,-3.65304 1.23327,-0.72111 3.16394,0.72177 4.39723,0.23263 2.41978,-0.72117 4.37418,-1.9307 7.04973,-2.90824 0.97749,-0.48842 1.21019,1.21021 1.69861,0.72111 3.42037,-0.97686 5.84014,-3.65238 8.0503,-3.88506 l 5.09529,-0.25633 2.93195,-0.72112 1.69798,-0.72111 -1.20956,-1.46596 3.39664,-0.48845 -3.39664,0.48845 1.20956,1.46596 c 4.63059,-2.21016 9.74896,-4.62993 14.61156,-6.58431 l -0.23263,-0.23263 c -2.93129,0.95379 -5.86324,1.44223 -9.02718,1.44223 1.46594,0 1.46594,0.4891 0,0.97752 l -1.44291,-0.72111 c 2.41977,-0.97752 4.86328,-2.18708 7.77147,-1.46597 0,0 0.97687,-0.72111 1.46599,-0.97754 0.97686,0 0.97686,0.48912 1.23263,0.74487 l 1.69861,-0.48844 c -1.46603,-0.48912 -5.60751,-0.48912 -5.60751,-0.48912 z"
       style="fill:#231f20;fill-opacity:1;fill-rule:evenodd;stroke:none" />
    <path
       inkscape:connector-curvature="0"
       id="path3736"
       d="m 487.9681,295.6441 1.46596,-0.74485 -6.09587,1.23329 c 1.23327,0.95379 2.93193,0 4.62991,-0.48844 z"
       style="fill:#231f20;fill-opacity:1;fill-rule:evenodd;stroke:none" />
    <path
       inkscape:connector-curvature="0"
       id="path3738"
       d="m 485.52529,222.61003 -2.41979,0.97688 1.46596,0 0.95383,-0.97688 z"
       style="fill:#231f20;fill-opacity:1;fill-rule:evenodd;stroke:none" />
    <path
       inkscape:connector-curvature="0"
       id="path3740"
       d="m 481.40684,223.81961 -0.25575,0.48842 -0.48842,0.48908 0.74417,-0.9775 z"
       style="fill:#231f20;fill-opacity:1;fill-rule:evenodd;stroke:none" />
    <path
       inkscape:connector-curvature="0"
       id="path3742"
       d="m 481.15109,225.51827 c -0.23263,-0.48847 -0.72112,-0.72116 -0.23263,-1.21024 l -1.23329,0.72177 1.46597,0.48847 z"
       style="fill:#231f20;fill-opacity:1;fill-rule:evenodd;stroke:none" />
    <path
       inkscape:connector-curvature="0"
       id="path3744"
       d="m 482.50039,230.63662 c -0.25575,0.23262 -0.97687,-1.20956 -1.46529,-0.72112 -1.46596,1.21022 -2.4435,2.41975 -3.90883,2.9082 -0.46537,0.97754 -2.18708,-0.48845 -2.90887,0 -1.46529,1.21021 -4.86261,4.86327 -2.44283,3.90879 3.90883,-1.46529 5.84017,-2.93125 9.00408,-4.88566 l 7.07346,-4.8626 1.95438,-0.97754 -2.93192,0.74485 c -1.69798,0 -2.44283,2.67552 -4.37416,3.88508 z"
       style="fill:#231f20;fill-opacity:1;fill-rule:evenodd;stroke:none" />
    <path
       inkscape:connector-curvature="0"
       id="path3746"
       d="m 499.15928,217.00258 -0.72111,1.21021 c -1.95438,-0.23262 -3.42037,0.7442 -4.62991,1.95441 l 0.97687,0.48842 c 0.97754,-0.48842 0.97754,-0.97749 -0.23263,-0.97749 2.41978,0 4.11841,-0.48847 5.84014,-1.69801 l -1.23336,-0.97754 z"
       style="fill:#231f20;fill-opacity:1;fill-rule:evenodd;stroke:none" />
    <path
       inkscape:connector-curvature="0"
       id="path3748"
       d="m 501.11369,217.23525 -0.97686,0.74487 0,0.23263 1.23329,-0.97754 -0.25634,0 z"
       style="fill:#231f20;fill-opacity:1;fill-rule:evenodd;stroke:none" />
    <path
       inkscape:connector-curvature="0"
       id="path3750"
       d="m 472.03032,229.9155 -12.88915,4.37416 -0.74484,0.72111 -1.20956,-0.23262 -1.95443,0.48907 -0.48908,0.23263 c -0.23262,0.25575 -0.23262,0.48844 0.25633,0.74419 l 0.72112,0.23263 -0.72112,-0.23263 -1.23329,-0.25575 -1.69868,0.74417 1.69868,-0.74417 0.97687,-0.48844 0.25633,-0.23263 -4.14151,1.20956 -0.97752,0.25575 c -0.97688,0.46537 -1.95443,0.95444 -2.67554,0.46537 l -0.74482,0.25633 0.25633,0 -0.4891,0 -3.16394,0.72117 -1.69866,1.72171 -0.97687,-0.97755 -0.97754,1.44291 1.95441,0.97687 c 0.97754,0.4891 0.97754,-2.41978 2.41977,-0.72112 -1.44223,-1.69866 -1.44223,1.21022 -2.41977,0.72112 l -1.95441,-0.97687 c -0.97686,0.48842 -2.44285,0.48842 -3.65236,0 1.20951,-1.21021 2.44283,-0.46536 3.65236,0 l 0.97754,-1.44291 0.97687,0.97755 1.69866,-1.72171 -6.32857,1.46593 c -14.12311,2.44285 -27.03605,5.35105 -41.62386,5.83949 -7.79452,0.4891 -15.35642,0 -22.89452,-1.20956 -14.61158,-1.69863 -28.24562,-0.74484 -42.34565,-7.53877 -5.11835,-2.44283 -15.58843,-3.65242 -20.70677,-5.11838 -7.79458,0.72112 -6.56126,8.74836 -6.07284,9.23678 2.67552,7.07276 7.53812,4.88636 16.30956,10.23738 -6.09592,-3.16462 5.3517,-2.67552 10.70274,2.18708 8.02725,7.79455 21.91764,4.14148 32.87615,6.09589 2.9082,0.72114 5.83949,0.23262 9.23681,0.48847 17.51973,2.41977 34.08569,-2.44288 51.86121,-5.3748 4.8626,-0.72112 8.51569,-3.65239 12.16871,-5.35105 2.93129,-0.97751 6.09591,-0.97751 8.51569,-1.46596 3.65241,-0.95379 6.58431,-2.67552 9.25985,-4.14148 -3.16399,1.23329 -5.60744,2.4435 -9.25985,3.65306 -2.41978,0.74417 1.20953,-2.41977 2.67549,-3.39664 0.7442,-0.4891 2.18713,0.97687 2.93127,0.23263 1.46601,-0.4891 2.67623,-1.44291 4.14151,-2.41978 0.48912,-0.74484 0.97752,0.97687 1.21024,0.72112 2.18708,-0.97754 3.16394,-3.88574 4.8626,-3.88574 l 3.16394,-0.25575 1.72239,-0.48842 0.95379,-0.95446 -0.95379,-1.46531 2.1864,0 -2.1864,0 0.95379,1.46531 8.53877,-5.60679 -0.25575,-0.25634 c -1.69864,0.97755 -3.39732,1.46599 -5.58437,1.23329 0.95376,0 0.95376,0.48845 0,0.72112 l -0.97689,-0.48842 c 1.44225,-0.97691 2.90819,-1.95441 4.86262,-1.46599 l 0.72112,-0.72111 0.97752,0.72111 0.97688,-0.48842 c -0.97688,-0.46537 -3.65308,-0.46537 -3.65308,-0.46537 z"
       style="fill:#231f20;fill-opacity:1;fill-rule:evenodd;stroke:none" />
    <path
       inkscape:connector-curvature="0"
       id="path3752"
       d="m 453.64971,235.98832 0.72177,-0.23263 -3.65304,0.97691 c 0.74417,0.72175 1.95441,0 2.93127,-0.74421 z"
       style="fill:#231f20;fill-opacity:1;fill-rule:evenodd;stroke:none" />
    <path
       inkscape:connector-curvature="0"
       id="path3754"
       d="m 300.85754,404.69452 0.74482,-1.20952 -0.9775,0.23263 c -0.25574,0.48842 0,0.74417 0.23263,0.97686 z"
       style="fill:#231f20;fill-opacity:1;fill-rule:evenodd;stroke:none" />
    <path
       inkscape:connector-curvature="0"
       id="path3756"
       d="m 300.99728,402.27479 1.23329,0.46532 -0.48845,-1.20951 -0.74484,0.74419 z"
       style="fill:#231f20;fill-opacity:1;fill-rule:evenodd;stroke:none" />
    <path
       inkscape:connector-curvature="0"
       id="path3758"
       d="m 295.64623,400.41395 c -0.23262,-0.25633 1.46531,0.23262 1.20956,-0.25633 -0.23262,-0.97689 -0.95381,-1.69801 -0.48844,-2.41978 -0.46537,-0.74419 1.72173,-0.48844 1.23329,-1.23263 -0.25633,-0.9775 -1.95441,-3.3973 -2.18708,-2.18708 l -0.25633,4.8626 1.21019,4.39725 -0.72112,0.97752 1.46533,-1.23326 c 0.48908,-0.48842 -1.46533,-1.93133 -1.46533,-2.90822 z"
       style="fill:#231f20;fill-opacity:1;fill-rule:evenodd;stroke:none" />
    <path
       inkscape:connector-curvature="0"
       id="path3760"
       d="m 297.83333,411.51223 -0.23262,-0.97755 c 1.46531,-0.23262 1.20956,-1.20958 0.97686,-2.18708 l -0.74417,0 c -0.23262,0.48843 0.25575,0.74485 0.74417,0.48843 -1.23329,0.48907 -1.9544,1.21023 -2.21015,2.44348 l 1.46598,0.23262 z"
       style="fill:#231f20;fill-opacity:1;fill-rule:evenodd;stroke:none" />
    <path
       inkscape:connector-curvature="0"
       id="path3762"
       d="m 301.50945,396.99358 1.72171,-6.32854 c -0.25633,-0.23263 -0.4891,-0.48847 -0.25633,-0.48847 l 0.4891,-0.48842 0.25574,-0.95446 0,-0.25575 -0.74484,-0.23263 -0.48845,0.23263 0.48845,-0.23263 0.74484,-0.25575 0,-0.97754 0,0.97754 0,0.48842 0.23263,0.25575 0.48844,-2.21018 0,-0.48839 c 0,-0.46537 -0.25574,-0.95384 0.72112,-1.21022 l 0,-0.23262 -0.23263,0 0.23263,-0.25575 0.4891,-1.46599 -0.7218,-1.20953 0.97755,-0.23263 -0.74485,-0.74489 -1.44223,0.48912 c -0.97754,0.25575 1.44223,1.23264 -0.25575,1.23264 1.69798,0 -0.72179,-0.97687 0.25575,-1.23264 l 1.44223,-0.48912 c -0.23263,-0.4884 0.25633,-1.20951 1.23329,-1.44223 0.48842,0.72111 -0.25575,1.20958 -1.23329,1.44223 l 0.74485,0.74489 -0.97755,0.23263 0.7218,1.20953 0.97686,-3.16394 c 2.44283,-6.56128 2.93195,-13.14559 4.62993,-20.42797 l 3.16462,-11.21494 c 2.44283,-7.30543 0.72112,-14.12246 5.35105,-21.42856 1.69865,-2.90817 0.97751,-8.51564 0.97751,-11.19117 -2.67615,-3.88573 -9.74893,-2.18707 -10.2143,-1.9544 -6.09589,1.9544 -2.93127,3.90881 -6.58433,8.28297 2.1871,-2.9082 3.65306,2.44282 -0.48842,5.60744 -6.56128,3.88511 -1.95441,10.21367 -3.88574,15.3327 l -0.48844,4.14151 c -3.16462,7.79387 -0.97752,15.58839 -2.93193,23.84834 -0.23262,2.18705 1.21019,4.39723 1.69866,6.32854 0,1.23263 -0.95383,2.67554 -1.44291,3.65241 -0.25575,1.72171 0,3.42036 0.72175,4.88633 l -0.23263,-4.62989 c 0.23263,-1.23329 1.9307,1.20954 2.18713,1.93066 0.23262,0.48912 -1.46596,0.74487 -1.23329,1.23329 -0.23263,0.72111 0.48844,1.46596 0.74419,2.41977 0.23263,0.25575 -1.23266,0 -1.23266,0 0.25575,1.23329 2.21018,2.44283 1.46533,3.16462 l -0.97686,1.23264 -0.23263,0.97752 0.23263,0.48842 1.72171,0.23262 -0.74485,0.72114 0.74485,-0.72114 -1.72171,-0.23262 1.23329,5.09532 0.23262,0 c 0,-0.72112 0.48842,-1.69866 1.69798,-2.18713 -0.46536,0.25575 -0.95381,0 -0.95381,-0.4884 l 0.95381,0 c 0.25634,0.7442 0.4891,1.69864 -0.95381,2.18706 l 0.48845,0.74421 -1.23262,-0.25574 0,0.74484 c 0.97687,-0.25633 2.18708,-1.23331 2.18708,-1.23331 z"
       style="fill:#231f20;fill-opacity:1;fill-rule:evenodd;stroke:none" />
    <path
       inkscape:connector-curvature="0"
       id="path3764"
       d="m 303.32412,387.89654 0,0.25574 0.74417,-1.95435 c -0.97687,0.23262 -0.97687,0.72111 -0.74417,1.69861 z"
       style="fill:#231f20;fill-opacity:1;fill-rule:evenodd;stroke:none" />
    <path
       inkscape:connector-curvature="0"
       id="path3766"
       d="m 342.59806,306.83526 0.72112,-0.72111 -0.95379,0 c -0.48847,0 0,0.46537 0.23262,0.72111 z"
       style="fill:#231f20;fill-opacity:1;fill-rule:evenodd;stroke:none" />
    <path
       inkscape:connector-curvature="0"
       id="path3768"
       d="m 342.38844,304.88088 1.21024,0.97687 0,-0.97687 -1.21024,0 z"
       style="fill:#231f20;fill-opacity:1;fill-rule:evenodd;stroke:none" />
    <path
       inkscape:connector-curvature="0"
       id="path3770"
       d="m 337.27007,302.36817 c 0,-0.23262 1.72173,0.48845 1.46598,0.25575 -0.23262,-0.74421 -0.97752,-1.72171 -0.48909,-1.9544 -0.72112,-0.48842 1.46596,0 1.21021,-0.25575 -0.23263,-0.72112 -2.1871,-2.6755 -2.1871,-1.93131 l -0.23263,3.1646 0.72112,2.90824 -0.23263,0.48842 1.21022,-0.48842 c 0.48844,0 -1.21022,-1.46599 -1.46597,-2.1871 z"
       style="fill:#231f20;fill-opacity:1;fill-rule:evenodd;stroke:none" />
    <path
       inkscape:connector-curvature="0"
       id="path3772"
       d="m 339.45717,310.48833 -0.23263,-0.97754 c 1.46599,0.25575 1.46599,-0.48842 0.97691,-0.97687 l -0.74421,-0.23262 0.74421,0.48844 c -1.20958,0 -1.9544,0.23263 -1.9544,0.97687 l 1.21019,0.72177 z"
       style="fill:#231f20;fill-opacity:1;fill-rule:evenodd;stroke:none" />
    <path
       inkscape:connector-curvature="0"
       id="path3774"
       d="m 338.01428,309.99925 0.23263,-0.23262 -0.23263,-0.25575 0,0.48842 z"
       style="fill:#231f20;fill-opacity:1;fill-rule:evenodd;stroke:none" />
    <path
       inkscape:connector-curvature="0"
       id="path3776"
       d="m 342.66792,301.90281 1.9544,-3.90884 c -0.25574,0 -0.74484,-0.23263 -0.48842,-0.48842 l 0.72112,0 0.23263,-0.48907 0,-0.23263 -0.72112,-0.25575 -0.48912,0 0.48912,0 0.4884,-0.23262 0.23262,-0.48845 -0.23262,0.48845 0.23262,0.48842 0,0.23262 0.74422,-1.20953 0,-0.48845 c -0.25575,-0.23262 -0.25575,-0.72177 0.4891,-0.4891 l 0,-0.23262 0.23262,0 0.48842,-0.97687 -0.72112,-0.97754 0.72112,0 -0.48842,-0.48842 -1.46596,0 c -0.95384,0 1.23326,0.97754 -0.23263,0.72112 1.46597,0.25633 -0.72111,-0.72112 0.23263,-0.72112 l 1.46596,0 c -0.23262,-0.48844 0,-0.72111 0.97687,-0.72111 0.48842,0.48842 -0.23263,0.72111 -0.97687,0.72111 l 0.48842,0.48842 -0.72112,0 0.72112,0.97754 0.97687,-1.69865 c 2.4435,-3.90879 2.93194,-8.28297 4.6306,-12.65713 l 3.16394,-6.58436 c 2.44283,-4.37416 0.72112,-8.77139 5.60745,-13.14559 1.44228,-1.69861 0.95384,-5.11835 0.95384,-6.81701 -2.4198,-2.6755 -9.98165,-1.69863 -10.21435,-1.69863 -6.32856,0.97751 -2.93125,2.41975 -6.81698,4.8626 2.18708,-1.69798 3.88573,1.69863 -0.48847,3.16462 -6.32854,1.95438 -1.69861,6.09591 -3.88574,9.00411 l -0.48839,2.44285 c -2.6755,4.37418 -0.7442,9.23678 -2.44285,13.86671 -0.23263,1.46598 0.97688,2.93194 1.20958,4.14148 0.25631,0.74487 -0.95384,1.46599 -0.95384,1.95441 -0.48839,0.97754 -0.25574,1.9544 0.23263,3.16462 l 0,-2.93193 c 0,-0.72111 1.69866,1.23327 2.18708,1.72171 0.25575,0.23263 -1.69861,0 -1.46596,0.23263 0,0.48907 0.48909,1.21021 0.74484,1.69866 0.48845,0.48842 -1.23329,-0.23263 -0.97749,0 0.23262,0.74484 1.95436,1.95438 1.46594,2.18708 l -1.23329,0.48842 -0.23263,0.48912 0.23263,0.48842 1.72171,0.48844 -0.74417,0.25575 0.74417,-0.25575 -1.72171,-0.48844 1.23329,3.42037 0.23262,0.23262 c 0,-0.72175 0.48845,-0.97754 1.46596,-1.21021 l -0.72111,-0.48845 0.72111,0.23263 c 0.23263,0.48844 0.48847,1.23329 -0.72111,1.23329 l 0.46471,0.48844 -1.20956,-0.25575 0,0.25575 c 0.74485,0.23263 1.95443,0 1.95443,0 z"
       style="fill:#231f20;fill-opacity:1;fill-rule:evenodd;stroke:none" />
    <path
       inkscape:connector-curvature="0"
       id="path3778"
       d="m 344.83194,296.41202 0.48845,0.48842 0.72111,-1.21021 c -1.20956,-0.25575 -1.20956,0.4891 -1.20956,0.72179 z"
       style="fill:#231f20;fill-opacity:1;fill-rule:evenodd;stroke:none" />
    <path
       inkscape:connector-curvature="0"
       id="path3780"
       d="m 474.10141,407.37074 -0.48844,-1.21021 -0.74485,0.48842 c 0,0.48907 0.48844,0.72179 1.23329,0.72179 z"
       style="fill:#231f20;fill-opacity:1;fill-rule:evenodd;stroke:none" />
    <path
       inkscape:connector-curvature="0"
       id="path3782"
       d="m 473.35656,404.95097 -0.23262,0 0,-0.25634 0.23262,0.25634 z"
       style="fill:#231f20;fill-opacity:1;fill-rule:evenodd;stroke:none" />
    <path
       inkscape:connector-curvature="0"
       id="path3784"
       d="m 472.3797,405.18362 1.23327,-0.23263 -0.74485,-0.74485 -0.48842,0.97755 z"
       style="fill:#231f20;fill-opacity:1;fill-rule:evenodd;stroke:none" />
    <path
       inkscape:connector-curvature="0"
       id="path3786"
       d="m 466.60941,405.6022 c -0.25574,0 1.44291,-0.48844 0.95382,-0.72112 -0.72112,-0.72111 -1.44224,-1.21023 -1.69798,-2.1871 -0.48913,-0.25575 1.23261,-1.21021 0.74416,-1.46596 -0.74416,-0.72112 -3.65304,-2.44283 -3.16394,-1.20954 l 2.41978,4.8626 2.93124,3.88574 0.23263,1.23264 0.25575,-1.69801 c 0.23262,-0.74487 -1.95441,-1.46598 -2.67553,-2.69925 z"
       style="fill:#231f20;fill-opacity:1;fill-rule:evenodd;stroke:none" />
    <path
       inkscape:connector-curvature="0"
       id="path3788"
       d="m 474.58985,415.65371 -0.48844,-0.4891 c 1.20954,-0.97686 0.23263,-2.1871 -0.48844,-2.90822 l -0.97752,0.46537 c 0.23262,0.48845 0.97752,0.48845 1.21021,0 -0.97754,1.46599 -0.97754,2.44285 -0.23262,3.42037 l 0.97686,-0.48842 z"
       style="fill:#231f20;fill-opacity:1;fill-rule:evenodd;stroke:none" />
    <path
       inkscape:connector-curvature="0"
       id="path3790"
       d="m 472.86812,416.86325 c 1.46596,0 0.48844,-0.97689 0.97754,-0.97689 l -0.4891,0 c 0,0 0.4891,1.46533 -0.48844,0.97689 z"
       style="fill:#231f20;fill-opacity:1;fill-rule:evenodd;stroke:none" />
    <path
       inkscape:connector-curvature="0"
       id="path3792"
       d="m 470.16955,399.83192 -1.69869,-7.04968 c -0.25574,-0.25575 -0.74482,-0.25575 -0.74482,-0.48845 l 0.48908,-0.74484 -0.23263,-0.95379 0,-0.25575 -0.74485,0.25575 -0.46536,0.46537 0.46536,-0.46537 0.25575,-0.74419 -0.25575,-0.97755 0.25575,0.97755 0.4891,0.48844 -0.25636,-2.18713 -0.23262,-0.48839 c -0.48844,-0.4891 -0.72114,-0.97754 0,-1.46596 l -0.25575,-0.48845 -0.23262,-1.93133 -1.20954,-0.74484 0.72111,-0.72112 -0.97754,-0.25575 -0.97686,0.97689 c -0.72112,0.74484 1.72171,0.4891 0.48844,1.46596 1.23327,-0.97686 -1.20956,-0.72112 -0.48844,-1.46596 l 0.97686,-0.97689 c -0.23262,-0.48842 -0.23262,-1.44289 0.4891,-2.1871 0.74419,0.48847 0.25575,1.46598 -0.4891,2.1871 l 0.97754,0.25575 -0.72111,0.72112 1.20954,0.74484 -0.23263,-3.42037 c -0.97686,-7.79389 -2.69858,-14.35515 -2.93127,-22.40547 -0.4891,-4.37416 0,-8.51564 0.48844,-12.65713 0.97687,-8.02722 -1.69866,-15.33269 2.18708,-23.61566 1.20959,-2.9082 0.48847,-8.51567 0.25575,-11.42389 -2.69858,-3.65304 -9.98095,-2.18708 -10.23738,-1.95438 -6.07213,2.44283 -2.90819,4.37416 -6.32856,9.74828 1.95441,-3.65241 3.88574,2.41977 -0.23262,5.84014 -6.0959,5.0953 -0.48845,12.16871 -1.72174,18.24089 -0.23262,1.46596 0.25633,3.16462 0.48912,4.88633 -1.21023,9.7252 2.6755,18.0082 4.39724,27.7334 0.72111,2.69925 2.67549,4.6306 3.88508,6.32861 0.97749,1.72171 0.23262,3.42037 0.97749,4.63058 0.48847,1.95441 1.46601,3.41969 2.67553,4.88568 l -2.44281,-4.88568 c -0.48844,-1.21021 2.44281,0.48845 2.93127,1.23261 0.4891,0.23263 -0.97686,1.44291 -0.72111,1.69866 0.23262,0.72112 1.21021,1.21022 1.93133,1.95441 0.48844,0.46537 -1.21022,0.72111 -0.97757,0.95379 0.74489,0.97754 2.93197,1.46596 2.67622,2.21083 l -0.23262,1.93065 0.23262,0.97754 0.4884,0.48842 1.72176,-0.72111 -0.25575,1.20958 0.25575,-1.20958 -1.72176,0.72111 3.65309,4.37421 0.25575,0 c -0.48847,-0.95384 -0.48847,-1.93133 0.23262,-3.16462 -0.23262,0.48907 -0.72114,0.48907 -0.97751,0 l 0.74482,-0.48847 c 0.72111,0.74487 1.20956,1.46599 0.48844,2.69925 l 0.48842,0.23263 -0.97686,0.72111 0.23262,0.48845 c 0.7442,-0.48845 1.46597,-2.18708 1.46597,-2.18708 z"
       style="fill:#231f20;fill-opacity:1;fill-rule:evenodd;stroke:none" />
    <path
       inkscape:connector-curvature="0"
       id="path3794"
       d="m 467.44719,389.59454 0.25575,0.74487 -0.25575,-2.44287 c -1.21021,0.74421 -0.48842,1.23263 0,1.698 z"
       style="fill:#231f20;fill-opacity:1;fill-rule:evenodd;stroke:none" />
    <path
       inkscape:connector-curvature="0"
       id="path3796"
       d="m 432.94292,301.48357 0,-0.74417 -0.7218,0.48842 c 0,0.25575 0.23263,0.25575 0.7218,0.25575 z"
       style="fill:#231f20;fill-opacity:1;fill-rule:evenodd;stroke:none" />
    <path
       inkscape:connector-curvature="0"
       id="path3798"
       d="m 432.71025,300.25095 0,-0.23262 -0.25634,0 0.25634,0.23262 z"
       style="fill:#231f20;fill-opacity:1;fill-rule:evenodd;stroke:none" />
    <path
       inkscape:connector-curvature="0"
       id="path3800"
       d="m 431.98845,300.7394 0.7218,-0.48845 -0.25634,-0.46536 -0.46536,0.95381 z"
       style="fill:#231f20;fill-opacity:1;fill-rule:evenodd;stroke:none" />
    <path
       inkscape:connector-curvature="0"
       id="path3802"
       d="m 426.14899,301.87971 c -0.23263,-0.23263 1.69798,-0.72175 1.20953,-0.72175 -0.46536,-0.25575 -1.44221,-0.48844 -1.69863,-0.74422 -0.23263,0 1.69863,-0.72111 1.23327,-0.72111 -0.74417,-0.25633 -3.18768,-0.25633 -2.93125,0.23262 l 1.46528,1.72171 2.6762,0.95382 0,0.48842 0.72112,-0.72112 c 0.25575,-0.48842 -1.93133,-0.23262 -2.67552,-0.48842 z"
       style="fill:#231f20;fill-opacity:1;fill-rule:evenodd;stroke:none" />
    <path
       inkscape:connector-curvature="0"
       id="path3804"
       d="m 432.71025,305.13663 -0.7218,-0.48844 c 1.21022,-0.48842 0.7218,-0.74485 0,-0.97755 l -0.74419,0.23263 0.97686,-0.23263 c -0.97686,0.7218 -0.97686,1.46599 -0.72111,1.69866 l 1.21024,-0.23262 z"
       style="fill:#231f20;fill-opacity:1;fill-rule:evenodd;stroke:none" />
    <path
       inkscape:connector-curvature="0"
       id="path3806"
       d="m 431.50001,305.3693 0,-0.23262 -0.25575,0 0.25575,0.23262 z"
       style="fill:#231f20;fill-opacity:1;fill-rule:evenodd;stroke:none" />
    <path
       inkscape:connector-curvature="0"
       id="path3808"
       d="m 430.19686,298.48244 -0.97689,-3.16397 -0.48839,0.25575 0.25574,-0.48844 0,-0.48908 -0.25574,-0.25575 -0.4891,0.48845 -0.48847,0.25633 0.48847,-0.25633 0.25633,-0.48845 -0.25633,-0.46537 0.25633,0.46537 0.23263,0 0.25574,0 -0.25574,-0.95379 -0.23263,0 c -0.4891,-0.25574 -0.74487,-0.25574 0,-0.97751 l -0.25633,0 0.25633,-0.25575 0,-0.48842 -1.23327,0 0.74417,-0.48845 -0.74417,0 -1.21021,0.97687 c -0.72114,0.48844 1.69861,-0.48842 0.48907,0.48844 1.20954,-0.97686 -1.21021,0 -0.48907,-0.48844 l 1.21021,-0.97687 c -0.46536,0 -0.23262,-0.46536 0.4884,-0.95446 0.74487,0 0.25577,0.4891 -0.4884,0.95446 l 0.74417,0 -0.74417,0.48845 1.23327,0 -0.25633,-1.44291 c 0.25633,-2.93127 -0.23263,-5.83947 0,-9.49253 l 1.72171,-5.37475 c 1.44291,-3.39667 -0.97687,-6.32861 3.16462,-9.981 1.44223,-1.44289 0.23262,-3.65304 0,-4.86326 -2.67555,-1.69798 -9.74893,-0.48844 -10.2374,-0.48844 -5.84014,1.46596 -2.41977,2.18708 -5.84014,4.39723 1.9544,-1.46528 3.88573,0.95447 -0.23263,2.6762 -6.32859,2.41975 -0.74419,5.09528 -2.21018,7.7708 -0.72111,0.48847 0,1.23331 0,1.95443 -1.93133,4.37416 1.23327,7.79452 1.72174,12.65713 0.23262,1.23329 1.93133,1.9544 2.90819,2.67552 0.74485,0.97754 0.25633,2.44287 0.74485,3.42037 0.72114,1.69865 1.69866,2.18707 2.41977,1.9544 -0.4891,-0.25575 -1.21021,-0.48844 -2.18708,-1.9544 -0.48846,-0.9775 2.18708,-0.25575 2.93127,0 0.48845,0 -0.97686,1.20958 -0.74419,1.20958 0.25577,0.25633 0.97687,0 1.46531,0 0.23263,0 -0.97686,0.74482 -0.97686,0.74482 0.48842,0 2.67552,-0.48844 2.18708,-0.25575 l -0.23263,0.97689 0,0.23263 0.4884,0 1.46601,-0.72112 -0.25575,0.72112 0.25575,-0.72112 -1.46601,0.72112 2.90824,0.97754 0.25633,0 c -0.25633,-0.23263 -0.25633,-0.72179 0.48844,-1.46596 l -0.74484,0.25575 0.74484,-0.48845 c 0.48845,0.23263 0.97687,0.48845 0,1.20956 l 0.48845,0 -0.97689,0.4891 0.23263,0.25575 c 0.74421,-0.48845 1.46533,-1.23329 1.46533,-1.23329 z"
       style="fill:#231f20;fill-opacity:1;fill-rule:evenodd;stroke:none" />
    <path
       inkscape:connector-curvature="0"
       id="path3810"
       d="m 428.49886,294.41081 0.25574,0 -0.25574,-0.97689 c -1.21022,0.74422 -0.4891,0.74422 0,0.97689 z"
       style="fill:#231f20;fill-opacity:1;fill-rule:evenodd;stroke:none" />
    <path
       inkscape:connector-curvature="0"
       id="path3812"
       d="m 363.56125,404.69452 0,-48.67354 c 0,0 2.67553,-16.56594 20.94015,-16.56594 18.00819,0 18.98573,19.9626 18.98573,19.9626 l 0,44.78848 -39.92588,0.4884 z"
       style="fill:#ff6949;fill-opacity:1;fill-rule:evenodd;stroke:none" />
  </g>
</svg>
